<svg xmlns="http://www.w3.org/2000/svg" viewBox="0 0 160 160" role="img" aria-label="Avatar placeholder">
  <defs>
    <clipPath id="avatarCircle">
      <circle cx="80" cy="80" r="78" />
    </clipPath>
  </defs>
  <circle cx="80" cy="80" r="78" fill="#586370" />
  <circle cx="80" cy="80" r="66" fill="#7f94aa" opacity=".62" />
  <g clip-path="url(#avatarCircle)">
    <path d="M51 134c-12-24-10-55 2-78 10-19 27-27 46-20 24 9 32 40 22 67-10 29-38 45-70 31Z" fill="#d240ad" />
    <path d="M78 72c15-18 45-8 49 15 4 23-12 47-32 51-22 4-39-15-37-38 1-12 5-21 20-28Z" fill="#714a43" />
    <path d="M46 151 77 109l19 42Z" fill="#2d455a" />
    <path d="M92 151 110 110l33 41Z" fill="#24384b" />
    <circle cx="68" cy="78" r="20" fill="#152d45" />
    <circle cx="107" cy="78" r="20" fill="#152d45" />
    <rect x="82" y="75" width="12" height="7" rx="3" fill="#152d45" />
  </g>
  <circle cx="80" cy="80" r="72" fill="none" stroke="#8da3b8" stroke-width="8" opacity=".45" />
</svg>
